<mxfile host="app.diagrams.net" agent="Mozilla/5.0 (Windows NT 10.0; Win64; x64) AppleWebKit/537.36 (KHTML, like Gecko) Chrome/126.0.0.0 Safari/537.36 OPR/112.0.0.0" scale="1" border="0" version="24.7.7">
  <diagram name="Seite-1" id="LneFHxVznUX6fQeCOE5-">
    <mxGraphModel dx="3120" dy="2482" grid="1" gridSize="10" guides="1" tooltips="1" connect="1" arrows="1" fold="1" page="1" pageScale="1" pageWidth="827" pageHeight="1169" math="0" shadow="0">
      <root>
        <mxCell id="0" />
        <mxCell id="1" parent="0" />
        <mxCell id="aWCrwrtCHUyIjo1oxELh-33" value="Klimarallye Deployment" style="shape=umlFrame;whiteSpace=wrap;html=1;pointerEvents=0;recursiveResize=0;container=1;collapsible=0;width=160;" vertex="1" parent="1">
          <mxGeometry x="-10" y="-10" width="1360" height="1160" as="geometry" />
        </mxCell>
        <mxCell id="iA8hJ3FjiZ6lC1cOA9c3-4" value="Client" style="verticalAlign=top;align=left;spacingTop=8;spacingLeft=2;spacingRight=12;shape=cube;size=10;direction=south;fontStyle=4;html=1;whiteSpace=wrap;" parent="aWCrwrtCHUyIjo1oxELh-33" vertex="1">
          <mxGeometry x="25" y="109" width="220" height="160" as="geometry" />
        </mxCell>
        <mxCell id="iA8hJ3FjiZ6lC1cOA9c3-85" value="Browser" style="html=1;dropTarget=0;whiteSpace=wrap;" parent="aWCrwrtCHUyIjo1oxELh-33" vertex="1">
          <mxGeometry x="60" y="154" width="150" height="70" as="geometry" />
        </mxCell>
        <mxCell id="iA8hJ3FjiZ6lC1cOA9c3-86" value="" style="shape=module;jettyWidth=8;jettyHeight=4;" parent="iA8hJ3FjiZ6lC1cOA9c3-85" vertex="1">
          <mxGeometry x="1" width="20" height="20" relative="1" as="geometry">
            <mxPoint x="-27" y="7" as="offset" />
          </mxGeometry>
        </mxCell>
        <mxCell id="iA8hJ3FjiZ6lC1cOA9c3-6" value="VServer" style="verticalAlign=top;align=left;spacingTop=8;spacingLeft=2;spacingRight=12;shape=cube;size=10;direction=south;fontStyle=4;html=1;whiteSpace=wrap;fillColor=none;" parent="aWCrwrtCHUyIjo1oxELh-33" vertex="1">
          <mxGeometry x="400" y="39.5" width="900" height="1081" as="geometry" />
        </mxCell>
        <mxCell id="iA8hJ3FjiZ6lC1cOA9c3-56" value="" style="ellipse;whiteSpace=wrap;html=1;align=center;aspect=fixed;fillColor=none;strokeColor=none;resizable=0;perimeter=centerPerimeter;rotatable=0;allowArrows=0;points=[];outlineConnect=1;" parent="aWCrwrtCHUyIjo1oxELh-33" vertex="1">
          <mxGeometry x="835" y="369" width="10" height="10" as="geometry" />
        </mxCell>
        <mxCell id="iA8hJ3FjiZ6lC1cOA9c3-62" value="" style="ellipse;whiteSpace=wrap;html=1;align=center;aspect=fixed;fillColor=none;strokeColor=none;resizable=0;perimeter=centerPerimeter;rotatable=0;allowArrows=0;points=[];outlineConnect=1;" parent="aWCrwrtCHUyIjo1oxELh-33" vertex="1">
          <mxGeometry x="835" y="459" width="10" height="10" as="geometry" />
        </mxCell>
        <mxCell id="iA8hJ3FjiZ6lC1cOA9c3-68" value="" style="ellipse;whiteSpace=wrap;html=1;align=center;aspect=fixed;fillColor=none;strokeColor=none;resizable=0;perimeter=centerPerimeter;rotatable=0;allowArrows=0;points=[];outlineConnect=1;" parent="aWCrwrtCHUyIjo1oxELh-33" vertex="1">
          <mxGeometry x="865" y="499" width="10" height="10" as="geometry" />
        </mxCell>
        <mxCell id="iA8hJ3FjiZ6lC1cOA9c3-73" value="" style="ellipse;whiteSpace=wrap;html=1;align=center;aspect=fixed;fillColor=none;strokeColor=none;resizable=0;perimeter=centerPerimeter;rotatable=0;allowArrows=0;points=[];outlineConnect=1;" parent="aWCrwrtCHUyIjo1oxELh-33" vertex="1">
          <mxGeometry x="1155" y="379" width="10" height="10" as="geometry" />
        </mxCell>
        <mxCell id="aWCrwrtCHUyIjo1oxELh-6" value="&amp;lt;execution environment&amp;gt;&lt;br&gt;Docker Image" style="verticalAlign=top;align=center;spacingTop=8;spacingLeft=2;spacingRight=12;shape=cube;size=10;direction=south;fontStyle=4;html=1;whiteSpace=wrap;" vertex="1" parent="aWCrwrtCHUyIjo1oxELh-33">
          <mxGeometry x="557" y="299" width="270" height="180" as="geometry" />
        </mxCell>
        <mxCell id="aWCrwrtCHUyIjo1oxELh-7" value="«Application»&lt;br&gt;&lt;b&gt;Hub&lt;/b&gt;" style="html=1;dropTarget=0;whiteSpace=wrap;" vertex="1" parent="aWCrwrtCHUyIjo1oxELh-33">
          <mxGeometry x="602" y="359" width="180" height="90" as="geometry" />
        </mxCell>
        <mxCell id="aWCrwrtCHUyIjo1oxELh-8" value="" style="shape=module;jettyWidth=8;jettyHeight=4;" vertex="1" parent="aWCrwrtCHUyIjo1oxELh-7">
          <mxGeometry x="1" width="20" height="20" relative="1" as="geometry">
            <mxPoint x="-27" y="7" as="offset" />
          </mxGeometry>
        </mxCell>
        <mxCell id="aWCrwrtCHUyIjo1oxELh-9" value="&amp;lt;execution environment&amp;gt;&lt;br&gt;Docker Image" style="verticalAlign=top;align=center;spacingTop=8;spacingLeft=2;spacingRight=12;shape=cube;size=10;direction=south;fontStyle=4;html=1;whiteSpace=wrap;" vertex="1" parent="aWCrwrtCHUyIjo1oxELh-33">
          <mxGeometry x="552" y="499" width="270" height="180" as="geometry" />
        </mxCell>
        <mxCell id="aWCrwrtCHUyIjo1oxELh-10" value="«Application»&lt;br&gt;&lt;b&gt;Flut&lt;/b&gt;" style="html=1;dropTarget=0;whiteSpace=wrap;" vertex="1" parent="aWCrwrtCHUyIjo1oxELh-33">
          <mxGeometry x="597" y="563" width="180" height="90" as="geometry" />
        </mxCell>
        <mxCell id="aWCrwrtCHUyIjo1oxELh-11" value="" style="shape=module;jettyWidth=8;jettyHeight=4;" vertex="1" parent="aWCrwrtCHUyIjo1oxELh-10">
          <mxGeometry x="1" width="20" height="20" relative="1" as="geometry">
            <mxPoint x="-27" y="7" as="offset" />
          </mxGeometry>
        </mxCell>
        <mxCell id="aWCrwrtCHUyIjo1oxELh-12" value="&amp;lt;execution environment&amp;gt;&lt;br&gt;Docker Image" style="verticalAlign=top;align=center;spacingTop=8;spacingLeft=2;spacingRight=12;shape=cube;size=10;direction=south;fontStyle=4;html=1;whiteSpace=wrap;" vertex="1" parent="aWCrwrtCHUyIjo1oxELh-33">
          <mxGeometry x="552" y="699" width="270" height="180" as="geometry" />
        </mxCell>
        <mxCell id="aWCrwrtCHUyIjo1oxELh-13" value="«Application»&lt;br&gt;&lt;b&gt;Recycling&lt;/b&gt;" style="html=1;dropTarget=0;whiteSpace=wrap;" vertex="1" parent="aWCrwrtCHUyIjo1oxELh-33">
          <mxGeometry x="590" y="769" width="180" height="90" as="geometry" />
        </mxCell>
        <mxCell id="aWCrwrtCHUyIjo1oxELh-14" value="" style="shape=module;jettyWidth=8;jettyHeight=4;" vertex="1" parent="aWCrwrtCHUyIjo1oxELh-13">
          <mxGeometry x="1" width="20" height="20" relative="1" as="geometry">
            <mxPoint x="-27" y="7" as="offset" />
          </mxGeometry>
        </mxCell>
        <mxCell id="aWCrwrtCHUyIjo1oxELh-18" value="&amp;lt;execution environment&amp;gt;&lt;br&gt;&lt;b&gt;Docker Image&lt;/b&gt;" style="verticalAlign=top;align=center;spacingTop=8;spacingLeft=2;spacingRight=12;shape=cube;size=10;direction=south;fontStyle=4;html=1;whiteSpace=wrap;" vertex="1" parent="aWCrwrtCHUyIjo1oxELh-33">
          <mxGeometry x="545" y="899" width="270" height="180" as="geometry" />
        </mxCell>
        <mxCell id="aWCrwrtCHUyIjo1oxELh-19" value="«Application»&lt;br&gt;&lt;b&gt;Wasserarm&lt;/b&gt;" style="html=1;dropTarget=0;whiteSpace=wrap;" vertex="1" parent="aWCrwrtCHUyIjo1oxELh-33">
          <mxGeometry x="590" y="958" width="180" height="90" as="geometry" />
        </mxCell>
        <mxCell id="aWCrwrtCHUyIjo1oxELh-20" value="" style="shape=module;jettyWidth=8;jettyHeight=4;" vertex="1" parent="aWCrwrtCHUyIjo1oxELh-19">
          <mxGeometry x="1" width="20" height="20" relative="1" as="geometry">
            <mxPoint x="-27" y="7" as="offset" />
          </mxGeometry>
        </mxCell>
        <mxCell id="aWCrwrtCHUyIjo1oxELh-21" value="&amp;lt;execution environment&amp;gt;&lt;br&gt;&lt;b&gt;Docker Image&lt;/b&gt;" style="verticalAlign=top;align=center;spacingTop=8;spacingLeft=2;spacingRight=12;shape=cube;size=10;direction=south;fontStyle=4;html=1;whiteSpace=wrap;" vertex="1" parent="aWCrwrtCHUyIjo1oxELh-33">
          <mxGeometry x="925" y="400" width="270" height="180" as="geometry" />
        </mxCell>
        <mxCell id="aWCrwrtCHUyIjo1oxELh-22" value="«Application»&lt;br&gt;&lt;b&gt;Asgard&lt;/b&gt;" style="html=1;dropTarget=0;whiteSpace=wrap;" vertex="1" parent="aWCrwrtCHUyIjo1oxELh-33">
          <mxGeometry x="960" y="464" width="180" height="90" as="geometry" />
        </mxCell>
        <mxCell id="aWCrwrtCHUyIjo1oxELh-23" value="" style="shape=module;jettyWidth=8;jettyHeight=4;" vertex="1" parent="aWCrwrtCHUyIjo1oxELh-22">
          <mxGeometry x="1" width="20" height="20" relative="1" as="geometry">
            <mxPoint x="-27" y="7" as="offset" />
          </mxGeometry>
        </mxCell>
        <mxCell id="aWCrwrtCHUyIjo1oxELh-24" value="&amp;lt;execution environment&amp;gt;&lt;br&gt;&lt;b&gt;Docker Image&lt;/b&gt;" style="verticalAlign=top;align=center;spacingTop=8;spacingLeft=2;spacingRight=12;shape=cube;size=10;direction=south;fontStyle=4;html=1;whiteSpace=wrap;" vertex="1" parent="aWCrwrtCHUyIjo1oxELh-33">
          <mxGeometry x="980" y="650" width="270" height="200" as="geometry" />
        </mxCell>
        <mxCell id="aWCrwrtCHUyIjo1oxELh-25" value="«persistence»&lt;br&gt;&lt;b&gt;Mimir&lt;/b&gt;" style="html=1;dropTarget=0;whiteSpace=wrap;" vertex="1" parent="aWCrwrtCHUyIjo1oxELh-33">
          <mxGeometry x="1020" y="725" width="180" height="90" as="geometry" />
        </mxCell>
        <mxCell id="aWCrwrtCHUyIjo1oxELh-26" value="" style="shape=module;jettyWidth=8;jettyHeight=4;" vertex="1" parent="aWCrwrtCHUyIjo1oxELh-25">
          <mxGeometry x="1" width="20" height="20" relative="1" as="geometry">
            <mxPoint x="-27" y="7" as="offset" />
          </mxGeometry>
        </mxCell>
        <mxCell id="aWCrwrtCHUyIjo1oxELh-27" value="&amp;lt;execution environment&amp;gt;&lt;br&gt;&lt;b&gt;Docker Image&lt;/b&gt;" style="verticalAlign=top;align=center;spacingTop=8;spacingLeft=2;spacingRight=12;shape=cube;size=10;direction=south;fontStyle=4;html=1;whiteSpace=wrap;" vertex="1" parent="aWCrwrtCHUyIjo1oxELh-33">
          <mxGeometry x="440" y="79" width="270" height="200" as="geometry" />
        </mxCell>
        <mxCell id="aWCrwrtCHUyIjo1oxELh-28" value="«Application»&lt;br&gt;&lt;b&gt;Midgard&lt;/b&gt;" style="html=1;dropTarget=0;whiteSpace=wrap;" vertex="1" parent="aWCrwrtCHUyIjo1oxELh-33">
          <mxGeometry x="485" y="144" width="180" height="90" as="geometry" />
        </mxCell>
        <mxCell id="aWCrwrtCHUyIjo1oxELh-29" value="" style="shape=module;jettyWidth=8;jettyHeight=4;" vertex="1" parent="aWCrwrtCHUyIjo1oxELh-28">
          <mxGeometry x="1" width="20" height="20" relative="1" as="geometry">
            <mxPoint x="-27" y="7" as="offset" />
          </mxGeometry>
        </mxCell>
        <mxCell id="aWCrwrtCHUyIjo1oxELh-31" value="" style="endArrow=none;html=1;rounded=0;exitX=1;exitY=0.5;exitDx=0;exitDy=0;entryX=0;entryY=0.5;entryDx=0;entryDy=0;" edge="1" parent="aWCrwrtCHUyIjo1oxELh-33" source="iA8hJ3FjiZ6lC1cOA9c3-85" target="aWCrwrtCHUyIjo1oxELh-28">
          <mxGeometry width="50" height="50" relative="1" as="geometry">
            <mxPoint x="480" y="450" as="sourcePoint" />
            <mxPoint x="530" y="400" as="targetPoint" />
          </mxGeometry>
        </mxCell>
        <mxCell id="aWCrwrtCHUyIjo1oxELh-39" value="" style="endArrow=none;html=1;rounded=0;" edge="1" parent="aWCrwrtCHUyIjo1oxELh-33">
          <mxGeometry width="50" height="50" relative="1" as="geometry">
            <mxPoint x="556" y="400" as="sourcePoint" />
            <mxPoint x="480" y="279" as="targetPoint" />
            <Array as="points">
              <mxPoint x="480" y="400" />
            </Array>
          </mxGeometry>
        </mxCell>
        <mxCell id="aWCrwrtCHUyIjo1oxELh-43" value="" style="endArrow=none;html=1;rounded=0;" edge="1" parent="aWCrwrtCHUyIjo1oxELh-33">
          <mxGeometry width="50" height="50" relative="1" as="geometry">
            <mxPoint x="590" y="812" as="sourcePoint" />
            <mxPoint x="481" y="608" as="targetPoint" />
            <Array as="points">
              <mxPoint x="481" y="812" />
            </Array>
          </mxGeometry>
        </mxCell>
        <mxCell id="aWCrwrtCHUyIjo1oxELh-44" value="" style="endArrow=none;html=1;rounded=0;exitX=0;exitY=0.455;exitDx=0;exitDy=0;exitPerimeter=0;" edge="1" parent="aWCrwrtCHUyIjo1oxELh-33" source="aWCrwrtCHUyIjo1oxELh-7">
          <mxGeometry width="50" height="50" relative="1" as="geometry">
            <mxPoint x="556" y="400" as="sourcePoint" />
            <mxPoint x="480" y="279" as="targetPoint" />
            <Array as="points">
              <mxPoint x="480" y="400" />
            </Array>
          </mxGeometry>
        </mxCell>
        <mxCell id="aWCrwrtCHUyIjo1oxELh-46" value="" style="endArrow=none;html=1;rounded=0;exitX=0;exitY=0.5;exitDx=0;exitDy=0;" edge="1" parent="aWCrwrtCHUyIjo1oxELh-33" source="aWCrwrtCHUyIjo1oxELh-10">
          <mxGeometry width="50" height="50" relative="1" as="geometry">
            <mxPoint x="587" y="598" as="sourcePoint" />
            <mxPoint x="480" y="400" as="targetPoint" />
            <Array as="points">
              <mxPoint x="481" y="608" />
            </Array>
          </mxGeometry>
        </mxCell>
        <mxCell id="aWCrwrtCHUyIjo1oxELh-47" value="" style="endArrow=none;html=1;rounded=0;exitX=0;exitY=0.5;exitDx=0;exitDy=0;" edge="1" parent="aWCrwrtCHUyIjo1oxELh-33" source="aWCrwrtCHUyIjo1oxELh-19">
          <mxGeometry width="50" height="50" relative="1" as="geometry">
            <mxPoint x="570" y="994" as="sourcePoint" />
            <mxPoint x="481" y="812" as="targetPoint" />
            <Array as="points">
              <mxPoint x="480" y="1003" />
            </Array>
          </mxGeometry>
        </mxCell>
        <mxCell id="aWCrwrtCHUyIjo1oxELh-48" value="" style="endArrow=none;html=1;rounded=0;exitX=1;exitY=0.5;exitDx=0;exitDy=0;entryX=0;entryY=0.5;entryDx=0;entryDy=0;" edge="1" parent="aWCrwrtCHUyIjo1oxELh-33" source="aWCrwrtCHUyIjo1oxELh-7" target="aWCrwrtCHUyIjo1oxELh-22">
          <mxGeometry width="50" height="50" relative="1" as="geometry">
            <mxPoint x="860" y="640" as="sourcePoint" />
            <mxPoint x="910" y="590" as="targetPoint" />
            <Array as="points">
              <mxPoint x="890" y="404" />
              <mxPoint x="890" y="509" />
            </Array>
          </mxGeometry>
        </mxCell>
        <mxCell id="aWCrwrtCHUyIjo1oxELh-50" value="" style="endArrow=none;html=1;rounded=0;exitX=1;exitY=0.5;exitDx=0;exitDy=0;" edge="1" parent="aWCrwrtCHUyIjo1oxELh-33" source="aWCrwrtCHUyIjo1oxELh-13">
          <mxGeometry width="50" height="50" relative="1" as="geometry">
            <mxPoint x="787" y="618" as="sourcePoint" />
            <mxPoint x="890" y="610" as="targetPoint" />
            <Array as="points">
              <mxPoint x="890" y="814" />
              <mxPoint x="890" y="509" />
            </Array>
          </mxGeometry>
        </mxCell>
        <mxCell id="aWCrwrtCHUyIjo1oxELh-51" value="" style="endArrow=none;html=1;rounded=0;exitX=1;exitY=0.5;exitDx=0;exitDy=0;" edge="1" parent="aWCrwrtCHUyIjo1oxELh-33" source="aWCrwrtCHUyIjo1oxELh-19">
          <mxGeometry width="50" height="50" relative="1" as="geometry">
            <mxPoint x="780" y="824" as="sourcePoint" />
            <mxPoint x="890" y="810.4878048780488" as="targetPoint" />
            <Array as="points">
              <mxPoint x="890" y="1003" />
            </Array>
          </mxGeometry>
        </mxCell>
        <mxCell id="aWCrwrtCHUyIjo1oxELh-52" value="" style="endArrow=none;html=1;rounded=0;exitX=0.5;exitY=1;exitDx=0;exitDy=0;entryX=0;entryY=0.5;entryDx=0;entryDy=0;" edge="1" parent="aWCrwrtCHUyIjo1oxELh-33" source="aWCrwrtCHUyIjo1oxELh-22" target="aWCrwrtCHUyIjo1oxELh-25">
          <mxGeometry width="50" height="50" relative="1" as="geometry">
            <mxPoint x="1020" y="770" as="sourcePoint" />
            <mxPoint x="1070" y="720" as="targetPoint" />
            <Array as="points">
              <mxPoint x="1050" y="610" />
              <mxPoint x="930" y="610" />
              <mxPoint x="930" y="770" />
            </Array>
          </mxGeometry>
        </mxCell>
        <mxCell id="aWCrwrtCHUyIjo1oxELh-49" value="" style="endArrow=none;html=1;rounded=0;exitX=1;exitY=0.5;exitDx=0;exitDy=0;" edge="1" parent="1" source="aWCrwrtCHUyIjo1oxELh-10">
          <mxGeometry width="50" height="50" relative="1" as="geometry">
            <mxPoint x="782" y="404" as="sourcePoint" />
            <mxPoint x="880" y="500" as="targetPoint" />
            <Array as="points">
              <mxPoint x="880" y="598" />
              <mxPoint x="880" y="500" />
            </Array>
          </mxGeometry>
        </mxCell>
      </root>
    </mxGraphModel>
  </diagram>
</mxfile>
